<svg width="50" height="44" viewBox="0 0 50 44" fill="none" xmlns="http://www.w3.org/2000/svg">
<path d="M46.5287 23.2845C46.1801 23.6332 45.7162 23.8252 45.2227 23.8252H39.2129C38.7193 23.8252 38.2556 23.6332 37.9069 23.2845C37.5626 22.9402 37.3652 22.4643 37.3652 21.9785C37.3652 21.4921 37.5626 21.0158 37.907 20.6715C38.2556 20.3229 38.7193 20.1309 39.2129 20.1309H45.2227C45.7162 20.1309 46.1801 20.3229 46.5286 20.6715C46.8729 21.0158 47.0703 21.4921 47.0703 21.9785C47.0703 22.4643 46.8729 22.9403 46.5287 23.2845ZM25 25.9609C22.8036 25.9609 21.0166 24.1744 21.0166 21.9785C21.0166 19.782 22.8036 17.9951 25 17.9951C27.1959 17.9951 28.9824 19.782 28.9824 21.9785C28.9824 24.1744 27.1959 25.9609 25 25.9609ZM12.093 23.2846C11.7494 23.6281 11.2734 23.8252 10.7871 23.8252H4.77637C4.29004 23.8252 3.81397 23.6281 3.47041 23.2846C3.12676 22.9409 2.92969 22.4648 2.92969 21.9785C2.92969 21.4844 3.12168 21.0202 3.47031 20.6716C3.81397 20.3279 4.29004 20.1309 4.77637 20.1309H10.7871C11.2734 20.1309 11.7494 20.3279 12.0931 20.6716C12.4417 21.0202 12.6338 21.4844 12.6338 21.9785C12.6338 22.4648 12.4366 22.9408 12.093 23.2846ZM29.3108 37.8737C29.6596 38.2224 29.8516 38.6861 29.8516 39.1797C29.8516 39.6661 29.6545 40.1421 29.3107 40.4857C28.9673 40.8293 28.4912 41.0264 28.0048 41.0264H21.9941C21.5077 41.0264 21.0317 40.8293 20.6882 40.4856C20.3445 40.1421 20.1475 39.6661 20.1475 39.1797C20.1475 38.6861 20.3395 38.2224 20.6883 37.8737C21.0324 37.5295 21.5084 37.332 21.9941 37.332H28.0048C28.4906 37.332 28.9666 37.5295 29.3108 37.8737ZM20.6882 6.0833C20.3445 5.73975 20.1475 5.26377 20.1475 4.77637C20.1475 4.28994 20.3445 3.81396 20.6883 3.47031C21.0317 3.12666 21.5077 2.92969 21.9941 2.92969H28.0048C28.4913 2.92969 28.9673 3.12666 29.3108 3.47041C29.6545 3.81397 29.8516 4.28994 29.8516 4.77637V4.77734C29.8516 5.26377 29.6545 5.73975 29.3107 6.0834C28.9673 6.42695 28.4912 6.62402 28.0048 6.62402H21.9941C21.5077 6.62402 21.0317 6.42695 20.6882 6.0833ZM48.6003 18.6C47.6983 17.698 46.4987 17.2012 45.2227 17.2012H39.2129C37.9367 17.2012 36.7371 17.6979 35.8354 18.5999C35.2898 19.1454 34.8936 19.7998 34.6646 20.5137H31.7545C31.183 17.8758 29.1024 15.7948 26.4648 15.2231V9.55371H28.0048C29.2625 9.55371 30.4937 9.04385 31.3824 8.15498C32.2845 7.25303 32.7812 6.05352 32.7812 4.77734V4.77637C32.7812 3.5002 32.2845 2.30068 31.3825 1.39883C30.4807 0.496778 29.2811 0 28.0048 0H21.9941C20.7364 0 19.5053 0.509863 18.6166 1.39873C17.7146 2.30068 17.2178 3.5002 17.2178 4.77734C17.2178 6.05352 17.7146 7.25303 18.6165 8.15488C19.5054 9.04385 20.7365 9.55371 21.9941 9.55371H23.5352V15.2231C20.8971 15.7946 18.8162 17.8757 18.2445 20.5137H15.3348C15.1059 19.7996 14.71 19.1452 14.1647 18.6C13.2628 17.698 12.0633 17.2012 10.7871 17.2012H4.77637C3.50029 17.2012 2.30069 17.698 1.39863 18.6C0.496779 19.5021 0 20.7019 0 21.9785C0 23.2545 0.496777 24.454 1.39873 25.3562C2.30078 26.2581 3.50039 26.7549 4.77637 26.7549H10.7871C12.0632 26.7549 13.2627 26.2581 14.1646 25.3562C14.7098 24.8111 15.1057 24.1569 15.3346 23.4434H18.2446C18.8162 26.081 20.8972 28.1615 23.5352 28.733V34.4023H21.9941C20.7371 34.4023 19.5061 34.9126 18.6166 35.8021C17.7146 36.704 17.2178 37.9035 17.2178 39.1797C17.2178 40.4559 17.7146 41.6554 18.6165 42.5572C19.5054 43.4463 20.7365 43.9561 21.9941 43.9561H28.0048C29.2625 43.9561 30.4937 43.4463 31.3824 42.5573C32.2845 41.6554 32.7812 40.4559 32.7812 39.1797C32.7812 37.9035 32.2845 36.704 31.3825 35.8022C30.493 34.9126 29.2619 34.4023 28.0048 34.4023H26.4648V28.7329C29.1023 28.1614 31.1828 26.0809 31.7545 23.4434H34.6698C34.9017 24.1589 35.2989 24.8197 35.8353 25.3561C36.7372 26.2581 37.9368 26.7549 39.2129 26.7549H45.2227C46.4986 26.7549 47.6982 26.2581 48.6004 25.3561C49.4898 24.4665 50 23.2354 50 21.9785C50 20.7025 49.5029 19.5026 48.6003 18.6Z" fill="white"/>
</svg>
