<svg width="32" height="34" viewBox="0 0 32 34" fill="none" xmlns="http://www.w3.org/2000/svg">
<path d="M16 0C11.6547 0 11.1098 0.0193982 9.40322 0.101406C7.70021 0.18328 6.53711 0.468099 5.51933 0.884692C4.46719 1.31533 3.57491 1.89153 2.68542 2.82833C1.79593 3.76513 1.24884 4.70487 0.839948 5.81298C0.444394 6.88483 0.17396 8.10979 0.0962208 9.90339C0.018355 11.7007 0 12.2746 0 16.8511C0 21.4275 0.018355 22.0014 0.0962208 23.7987C0.17396 25.5923 0.444394 26.8173 0.839948 27.8892C1.24884 28.9973 1.79593 29.937 2.68542 30.8739C3.57491 31.8107 4.46719 32.3869 5.51933 32.8175C6.53711 33.234 7.70021 33.5189 9.40322 33.6007C11.1098 33.6827 11.6547 33.7021 16 33.7021C20.3453 33.7021 20.8902 33.6827 22.5968 33.6007C24.2998 33.5189 25.4629 33.234 26.4806 32.8175C27.5327 32.3869 28.425 31.8107 29.3146 30.8739C30.2041 29.937 30.7512 28.9973 31.1601 27.8892C31.5555 26.8173 31.826 25.5923 31.9037 23.7987C31.9816 22.0014 32 21.4275 32 16.8511C32 12.2746 31.9816 11.7007 31.9037 9.90339C31.826 8.10979 31.5555 6.88483 31.1601 5.81298C30.7512 4.70487 30.2041 3.76513 29.3146 2.82833C28.425 1.89153 27.5327 1.31533 26.4806 0.884692C25.4629 0.468099 24.2998 0.18328 22.5968 0.101406C20.8902 0.0193982 20.3453 0 16 0ZM16 3.03629C20.2722 3.03629 20.7782 3.05341 22.4654 3.13448C24.0254 3.20947 24.8725 3.48399 25.4363 3.71469C26.1832 4.02038 26.7162 4.3856 27.276 4.97524C27.836 5.56488 28.1827 6.12629 28.4729 6.91279C28.692 7.50657 28.9527 8.39883 29.0238 10.0418C29.1008 11.8187 29.1171 12.3516 29.1171 16.8511C29.1171 21.3505 29.1008 21.8835 29.0238 23.6603C28.9527 25.3033 28.692 26.1956 28.4729 26.7893C28.1827 27.5759 27.836 28.1372 27.276 28.7269C26.7162 29.3166 26.1832 29.6817 25.4363 29.9874C24.8725 30.2182 24.0254 30.4927 22.4654 30.5676C20.7785 30.6487 20.2725 30.6659 16 30.6659C11.7275 30.6659 11.2216 30.6487 9.53463 30.5676C7.97464 30.4927 7.12746 30.2182 6.56366 29.9874C5.81682 29.6817 5.28383 29.3166 4.7239 28.7269C4.16404 28.1372 3.81727 27.5759 3.52708 26.7893C3.30796 26.1956 3.04731 25.3033 2.97611 23.6603C2.89914 21.8835 2.88288 21.3505 2.88288 16.8511C2.88288 12.3516 2.89914 11.8187 2.97611 10.0418C3.04731 8.39883 3.30796 7.50657 3.52708 6.91279C3.81727 6.12629 4.16404 5.56488 4.7239 4.97524C5.28383 4.3856 5.81682 4.02038 6.56366 3.71469C7.12746 3.48399 7.97464 3.20947 9.53463 3.13448C11.2218 3.05341 11.7278 3.03629 16 3.03629Z" fill="white"/>
<path d="M16.0001 22.468C13.0545 22.468 10.6667 19.9532 10.6667 16.851C10.6667 13.7488 13.0545 11.234 16.0001 11.234C18.9456 11.234 21.3334 13.7488 21.3334 16.851C21.3334 19.9532 18.9456 22.468 16.0001 22.468ZM16.0001 8.19775C11.4623 8.19775 7.78381 12.0719 7.78381 16.851C7.78381 21.6301 11.4623 25.5042 16.0001 25.5042C20.5377 25.5042 24.2162 21.6301 24.2162 16.851C24.2162 12.0719 20.5377 8.19775 16.0001 8.19775Z" fill="white"/>
<path d="M26.4609 7.85584C26.4609 8.97264 25.6012 9.87793 24.5408 9.87793C23.4805 9.87793 22.6208 8.97264 22.6208 7.85584C22.6208 6.73903 23.4805 5.83374 24.5408 5.83374C25.6012 5.83374 26.4609 6.73903 26.4609 7.85584Z" fill="white"/>
</svg>
